<mxfile host="app.diagrams.net" modified="2023-09-24T10:04:10.941Z" agent="Mozilla/5.0 (Windows NT 10.0; Win64; x64) AppleWebKit/537.36 (KHTML, like Gecko) Chrome/116.0.0.0 Safari/537.36" etag="2QBhJfILQ_h05dsO03yz" version="21.8.1" type="github">
  <diagram name="Page-1" id="o_xHo8ON85YE4fshbSkJ">
    <mxGraphModel dx="880" dy="521" grid="1" gridSize="10" guides="1" tooltips="1" connect="1" arrows="1" fold="1" page="1" pageScale="1" pageWidth="850" pageHeight="1100" math="0" shadow="0">
      <root>
        <mxCell id="0" />
        <mxCell id="1" parent="0" />
        <mxCell id="a47FTv8H2IDmXPbzN4gT-1" value="Regular Verbs" style="swimlane;whiteSpace=wrap;html=1;" vertex="1" parent="1">
          <mxGeometry x="130" y="80" width="160" height="390" as="geometry" />
        </mxCell>
        <mxCell id="a47FTv8H2IDmXPbzN4gT-3" value="Irregular Verbs" style="swimlane;whiteSpace=wrap;html=1;" vertex="1" parent="1">
          <mxGeometry x="670" y="80" width="160" height="390" as="geometry" />
        </mxCell>
        <mxCell id="a47FTv8H2IDmXPbzN4gT-5" value="Swim" style="rounded=1;whiteSpace=wrap;html=1;" vertex="1" parent="1">
          <mxGeometry x="320" y="90" width="80" height="30" as="geometry" />
        </mxCell>
        <mxCell id="a47FTv8H2IDmXPbzN4gT-6" value="Jump" style="rounded=1;whiteSpace=wrap;html=1;" vertex="1" parent="1">
          <mxGeometry x="440" y="90" width="80" height="30" as="geometry" />
        </mxCell>
        <mxCell id="a47FTv8H2IDmXPbzN4gT-7" value="Walk" style="rounded=1;whiteSpace=wrap;html=1;" vertex="1" parent="1">
          <mxGeometry x="560" y="90" width="80" height="30" as="geometry" />
        </mxCell>
        <mxCell id="a47FTv8H2IDmXPbzN4gT-8" value="Enjoy" style="rounded=1;whiteSpace=wrap;html=1;" vertex="1" parent="1">
          <mxGeometry x="320" y="170" width="80" height="30" as="geometry" />
        </mxCell>
        <mxCell id="a47FTv8H2IDmXPbzN4gT-9" value="Bake" style="rounded=1;whiteSpace=wrap;html=1;" vertex="1" parent="1">
          <mxGeometry x="440" y="170" width="80" height="30" as="geometry" />
        </mxCell>
        <mxCell id="a47FTv8H2IDmXPbzN4gT-10" value="Drive" style="rounded=1;whiteSpace=wrap;html=1;" vertex="1" parent="1">
          <mxGeometry x="560" y="170" width="80" height="30" as="geometry" />
        </mxCell>
        <mxCell id="a47FTv8H2IDmXPbzN4gT-11" value="Eat" style="rounded=1;whiteSpace=wrap;html=1;" vertex="1" parent="1">
          <mxGeometry x="320" y="250" width="80" height="30" as="geometry" />
        </mxCell>
        <mxCell id="a47FTv8H2IDmXPbzN4gT-12" value="Stop" style="rounded=1;whiteSpace=wrap;html=1;" vertex="1" parent="1">
          <mxGeometry x="440" y="250" width="80" height="30" as="geometry" />
        </mxCell>
        <mxCell id="a47FTv8H2IDmXPbzN4gT-13" value="Fly" style="rounded=1;whiteSpace=wrap;html=1;" vertex="1" parent="1">
          <mxGeometry x="560" y="250" width="80" height="30" as="geometry" />
        </mxCell>
        <mxCell id="a47FTv8H2IDmXPbzN4gT-14" value="Wake" style="rounded=1;whiteSpace=wrap;html=1;" vertex="1" parent="1">
          <mxGeometry x="320" y="330" width="80" height="30" as="geometry" />
        </mxCell>
        <mxCell id="a47FTv8H2IDmXPbzN4gT-15" value="Learn" style="rounded=1;whiteSpace=wrap;html=1;" vertex="1" parent="1">
          <mxGeometry x="440" y="330" width="80" height="30" as="geometry" />
        </mxCell>
        <mxCell id="a47FTv8H2IDmXPbzN4gT-16" value="Go" style="rounded=1;whiteSpace=wrap;html=1;" vertex="1" parent="1">
          <mxGeometry x="560" y="330" width="80" height="30" as="geometry" />
        </mxCell>
      </root>
    </mxGraphModel>
  </diagram>
</mxfile>
